# xmcd
#
# Track frame offsets: 
#        150
#        13575
#        28942
#        43383
#        64266
#        76395
#        90355
#        109162
#        124209
#        142291
#        158875
#        172301
#        188775
#        202355
#
# Disc length: 2915 seconds
#
# Revision: 2
# Processed by: cddbd v1.5.2PL0 Copyright (c) Steve Scherf et al.
# Submitted via: ExactAudioCopy v0.99pb5
#
DISCID=d60b610e
DTITLE=Ashton Shephard - Where Country Grows (Deluxe)
DYEAR=2011
DGENRE=Country
TTITLE0=Look It Up (Edit)
TTITLE1=I'm Good
TTITLE2=Where Country Grows
TTITLE3=I'm Just A Woman
TTITLE4=More Cows Than People
TTITLE5=Beer On A Boat
TTITLE6=While It Ain't Rainin'
TTITLE7=Tryin' To Go To Church
TTITLE8=That All Leads To One Thing
TTITLE9=Rory's Radio
TTITLE10=Look It Up
TTITLE11=One Summer Gone
TTITLE12=Keepin' It Rural
TTITLE13=What If It Was
EXTD=
EXTT0=
EXTT1=
EXTT2=
EXTT3=
EXTT4=
EXTT5=
EXTT6=
EXTT7=
EXTT8=
EXTT9=
EXTT10=
EXTT11=
EXTT12=
EXTT13=
PLAYORDER=
